<?xml version="1.0" encoding="UTF-8"?><svg id="Layer_1" xmlns="http://www.w3.org/2000/svg" viewBox="0 0 835.6 770.26"><defs><style>.cls-1{fill:#403b38;}</style></defs><path class="cls-1" d="M236.15,434.23c-.73-5.18-1.58-8.68-2.55-10.5-1.09-2.03-2.5-2.91-4.25-2.67-1.62,.23-2.73,1.52-3.33,3.88-.6,2.37-.63,5.51-.08,9.44,.77,5.47,1.85,9.28,3.25,11.43,1.13,1.72,2.48,2.46,4.06,2.24,1.95-.27,3.08-1.62,3.37-4.05,.27-2.29,.11-5.55-.47-9.77Zm56.58,35.09c-.67-1.17-1.64-1.67-2.89-1.5-2.55,.36-3.61,3.4-3.2,9.14,.88-.13,2.72-.38,5.52-.77,.83-.12,1.56-.22,2.19-.31-.4-3.2-.94-5.39-1.62-6.56Zm0,0c-.67-1.17-1.64-1.67-2.89-1.5-2.55,.36-3.61,3.4-3.2,9.14,.88-.13,2.72-.38,5.52-.77,.83-.12,1.56-.22,2.19-.31-.4-3.2-.94-5.39-1.62-6.56Zm-56.58-35.09c-.73-5.18-1.58-8.68-2.55-10.5-1.09-2.03-2.5-2.91-4.25-2.67-1.62,.23-2.73,1.52-3.33,3.88-.6,2.37-.63,5.51-.08,9.44,.77,5.47,1.85,9.28,3.25,11.43,1.13,1.72,2.48,2.46,4.06,2.24,1.95-.27,3.08-1.62,3.37-4.05,.27-2.29,.11-5.55-.47-9.77Zm69.58-38.89l-110.16,15.39,15.38,110.16,110.16-15.38-15.38-110.17Zm-59.13,25.48c4.63-.86,8.21-2.36,10.75-4.5,.31-.21,.53-.33,.65-.35,.34-.04,.55,.27,.64,.93,.26,1.84,.43,3.03,.5,3.58,1.81-3.2,4.45-5.03,7.92-5.52,3.59-.5,6.11,.43,7.54,2.78,.61,.98,1.06,2.11,1.34,3.39,.29,1.29,.71,3.95,1.28,8l1.27,9.09c.18,1.3,.39,2.04,.63,2.24,.24,.21,.93,.23,2.08,.06,1.15-.16,1.75-.07,1.8,.26,.04,.34-.46,.58-1.5,.73-.08,.01-.63,.08-1.63,.22-1,.14-2.46,.35-4.39,.62l-2,.28-5.39,.75c-.59,.08-.9-.03-.94-.35-.04-.27,.19-.44,.68-.51l.49-.07c1.07-.15,1.67-.37,1.82-.67,.15-.3,.11-1.25-.11-2.84l-1.7-12.16c-.63-4.49-1.29-7.14-1.99-7.94-.6-.69-1.54-.94-2.81-.76-1.28,.17-2.27,.72-2.98,1.62-.72,.91-.99,1.97-.82,3.18l2.65,18.94c.15,.49,.37,.79,.67,.89,.29,.11,.98,.11,2.07,0,.34-.05,.52,.06,.55,.3,.04,.26-.09,.42-.37,.5-.29,.09-1.33,.25-3.13,.5-1.79,.25-3.27,.48-4.44,.69-2.28,.4-4.62,.77-7,1.1-.5,.07-.77-.04-.81-.33-.05-.33,.56-.59,1.84-.77,1.27-.17,1.98-.53,2.12-1.06l.06-.9-2-14.38c-.57-4.04-.9-6.14-1.01-6.29-.21-.61-.82-.84-1.82-.7-.55,.07-1.03,.14-1.44,.2l-.69,.1c-.67,.09-1.03,0-1.06-.27-.04-.28,.19-.47,.68-.58Zm-29.85,15.93c-.56-4.01,.4-7.63,2.87-10.85,2.46-3.22,5.72-5.11,9.78-5.68,3.88-.54,7.41,.43,10.59,2.9,3.18,2.47,5.05,5.72,5.61,9.73,.62,4.47-.63,8.33-3.75,11.57-2.46,2.56-5.33,4.07-8.63,4.53-3.93,.55-7.52-.39-10.78-2.81-3.25-2.42-5.15-5.55-5.69-9.39Zm20.01,66.91c-3.33,.47-5.63-.04-6.91-1.52-.51-.57-.83-1.12-.97-1.66-.14-.53-.36-1.93-.68-4.18l-.42-3.01c-.03-.8-.1-1.65-.22-2.52l-.31-1.3-.79-5.64-.63-4.52c-.11-.75-.27-1.17-.5-1.27-.22-.09-.86-.07-1.9,.08-1.26,.17-1.91,.09-1.95-.24-.04-.25,.17-.45,.62-.6,3.9-.67,6.99-3.28,9.25-7.81,.3-.64,.55-.97,.76-1,.25-.03,.42,.24,.5,.83,.46,3.59,.88,5.54,1.26,5.82,.38,.29,1.43,.32,3.14,.08,1.76-.25,2.98-.5,3.66-.77,.08-.05,.16-.08,.24-.1,.17-.02,.27,.1,.31,.36,.09,.61-.14,.96-.68,1.03-1.69,.28-3.57,.57-5.64,.86-.17,.02-.46,.06-.87,.12l.18,1.31c1.55,11.14,2.55,17.65,2.98,19.54,.72,2.36,2.08,3.4,4.07,3.12,.89-.12,1.95-.91,3.17-2.36,.6-.68,.98-1.03,1.15-1.05,.13-.02,.21,.07,.24,.28,.06,.46-.25,1.12-.95,1.99-1.79,2.25-4.49,3.63-8.11,4.13Zm40.6-6.24s-.43,.06-1.25,.17c-.88,.13-1.61,.23-2.2,.31l-1.56,.22c-3.6,.5-5.82,.75-6.67,.74l-1,.14-1.48,.4c-.54,.11-.83,0-.88-.36-.04-.27,.04-.42,.25-.45l1.45-.2c.92-.09,1.41-.41,1.46-.97,.03-.35-.22-2.44-.75-6.29l-1.31-9.33c-.54-3.89-1.05-6.16-1.52-6.82-.69-1.01-1.8-1.41-3.33-1.2-1.62,.23-2.76,1.14-3.43,2.73-.31,.77-.31,2.33,.02,4.68l1.38,9.89c.43,3.07,.66,4.75,.71,5.04l.1,.76,.21,1.51c.05,.63,.95,.83,2.72,.58,.36-.05,.57,.05,.6,.3,.04,.3-.21,.48-.75,.55l-.5,.08c-.36-.08-.87-.08-1.53,.02l-2.76,.38-3.5,.56-3.68,.64-1.88,.26c-.63,.09-.96,.01-.99-.24-.02-.13,.01-.22,.09-.27,.07-.06,.26-.1,.55-.14,1.59-.23,2.52-.42,2.79-.59,.28-.16,.4-.67,.37-1.52-.03-.5-.36-3.01-.99-7.52l-3.21-23c-.63-4.52-1.09-7.11-1.37-7.77-.29-.66-1.22-.88-2.81-.66-1.21,.17-1.84,.13-1.87-.12-.04-.25,.65-.52,2.05-.8,3.17-.65,6.11-1.62,8.81-2.89,.52-.24,.9-.38,1.15-.42,.34-.04,.67,1.1,.99,3.44l.18,1.26c.12,.83,.27,1.94,.46,3.32,.19,1.33,.32,2.25,.39,2.75l1.39,9.97c.97-1.88,1.99-3.22,3.05-4.01,1.06-.78,2.57-1.31,4.54-1.59,4.13-.58,6.96,.73,8.47,3.93,.53,1.03,.96,2.76,1.3,5.19l2.04,14.6c.15,1.09,.42,1.73,.81,1.93,.39,.2,1.29,.2,2.72,0,.41-.06,.64,.06,.68,.35,.04,.25-.13,.41-.51,.46Zm25.3-7.81c-1.89,3.54-4.72,5.57-8.48,6.1-4.22,.59-7.87-.26-10.96-2.56-3.09-2.29-4.93-5.53-5.51-9.71-.57-4.09,.27-7.69,2.52-10.8,2.25-3.1,5.33-4.93,9.26-5.48,2.68-.37,5.04-.1,7.08,.81,2.27,1,3.89,2.67,4.85,5.01,.27,.72,.52,1.6,.75,2.64-.94,.24-4.79,.87-11.56,1.87-1.04,.14-2.35,.37-3.93,.67,.09,1.52,.2,2.8,.35,3.84,.68,4.87,2.18,8.18,4.52,9.93,1.38,1.04,2.94,1.43,4.7,1.19,1.46-.2,2.8-.9,4.02-2.09,1.22-1.2,2.07-2.64,2.56-4.32,.22-.84,.44-1.28,.65-1.31,.16-.02,.26,.09,.3,.34,.13,.92-.25,2.21-1.12,3.87Zm-8.31-13.73c-.4-3.2-.94-5.39-1.62-6.56-.67-1.17-1.64-1.67-2.89-1.5-2.55,.36-3.61,3.4-3.2,9.14,.88-.13,2.72-.38,5.52-.77,.83-.12,1.56-.22,2.19-.31Zm-65.16-30.07c1.13,1.72,2.48,2.46,4.06,2.24,1.95-.27,3.08-1.62,3.37-4.05,.27-2.29,.11-5.55-.47-9.77-.73-5.18-1.58-8.68-2.55-10.5-1.09-2.03-2.5-2.91-4.25-2.67-1.62,.23-2.73,1.52-3.33,3.88-.6,2.37-.63,5.51-.08,9.44,.77,5.47,1.85,9.28,3.25,11.43Zm63.54,23.51c-.67-1.17-1.64-1.67-2.89-1.5-2.55,.36-3.61,3.4-3.2,9.14,.88-.13,2.72-.38,5.52-.77,.83-.12,1.56-.22,2.19-.31-.4-3.2-.94-5.39-1.62-6.56Zm0,0c-.67-1.17-1.64-1.67-2.89-1.5-2.55,.36-3.61,3.4-3.2,9.14,.88-.13,2.72-.38,5.52-.77,.83-.12,1.56-.22,2.19-.31-.4-3.2-.94-5.39-1.62-6.56Z"/><g><path class="cls-1" d="M752.74,97.92s-45.18,43.52-104.4,50.48c-56.05,6.61-80.14-18.03-138.55-18.03s-60.27,38.94-60.27,38.94c0,0-3.71-37.09-67.68-37.09s-79.76,27.82-150.22,27.82-108.19-55.72-109.4-57.46c.43,1.23,9.77,28.5,13.86,74.06,4.38,49.09,7.45,319.99,2.82,357.08-4.63,37.11-16.7,35.25-16.7,35.25,0,0,23.19,33.37,68.62,33.37s129.81-34.31,167.84-34.31,42.66,34.31,42.66,34.31c0,0,24.61-40.76,67.27-40.76s78.3,40.76,148.78,40.76,128.89-50.99,128.89-50.99c0,0-12.06-25.96-20.53-96.44s27.02-357,27.02-357Zm-121.99,483.41c-48.6,0-107.78-33.14-157.71-33.14s-70.91,33.14-70.91,33.14c0,0-9.95-30.93-46.39-30.93s-93.88,30.93-136.95,30.93-57.42-9.93-57.42-9.93l-11.05-416.37s33.14,32.04,90.56,32.04,83.83-27.51,133.64-32.04c72.88-6.63,78.41,70.69,78.41,70.69,0,0-1.11-60.74,39.75-68.48,40.86-7.72,68.48,16.58,114.86,16.58,67.37,0,118.18-25.41,118.18-25.41l-18.77,402.01s-27.62,30.93-76.21,30.93Z"/><path class="cls-1" d="M449.86,148.39c.1-.64-7.88-26.52,39.65-36.62,47.95-10.2,47.71-11.28,47.71-11.28v13.88s-40.16,3.05-58.98,10.07c-19.75,7.37-28.37,23.95-28.37,23.95Z"/><path class="cls-1" d="M769.79,202.44s-21.15,77.73-24.85,219.21c-1.54,58.85,12.86,67.12,12.86,67.12l-11.99,3.63s-17.44-53.05-6.54-144.98c10.9-91.93,19.62-144.98,19.62-144.98h10.9Z"/><path class="cls-1" d="M95.03,100.72s25.82,40.45,17.12,114.65c-8.7,74.21-14.99,97.5-14.99,97.5l16.01-2.36s11.22-80.8,6.62-136.43c-4.6-55.63-15.51-80.03-15.51-80.03l-9.26,6.67Z"/><path class="cls-1" d="M126.88,596.35s17.71,17.51,58.98,18.22c62.01,1.07,69.52-12.22,69.52-12.22l-4.46,12.97s-72.35,17.74-100.59,9.44c-28.24-8.29-34.46-44.35-34.46-44.35l11.02,15.92Z"/><path class="cls-1" d="M570.26,602.35s57.37,11.85,79.17,9.45c40.02-4.4,76.3-25.5,76.3-25.5v18.33s-39.08,13.43-77.73,17.75c-41.08,4.6-77.73-20.03-77.73-20.03Z"/></g><g><path class="cls-1" d="M237.52,326.71l-.2-1.43,16.79-2.35c3.97-.55,7.49-1.96,10.54-4.21,3.05-2.25,5.29-5.52,6.72-9.8,1.43-4.28,1.68-9.75,.75-16.41s-2.71-12.13-5.33-16.42c-2.62-4.28-5.75-7.37-9.38-9.26-3.63-1.89-7.43-2.56-11.41-2l-53.73,7.5-.29-2.1,57.09-7.97c13.94-1.95,25.32-1.04,34.15,2.72,8.83,3.76,14,11.1,15.53,22.01,1.46,10.47-1.31,18.71-8.31,24.74-7,6.03-17.92,10.08-32.76,12.15l-20.15,2.81Zm-12.98,66.44l-17.33-124.09,26.03-3.63,17.33,124.09-26.03,3.63Zm-14.98,3.03l-.29-2.1,55.41-7.74c4.53-.63,8.37-2.57,11.52-5.8,3.14-3.23,5.39-7.49,6.74-12.75,1.35-5.27,1.56-11.23,.63-17.89-.93-6.66-2.71-11.93-5.33-15.82-2.63-3.88-5.84-6.56-9.64-8.03-3.8-1.47-7.97-1.88-12.5-1.25l-18.47,2.58-.19-1.34,23.51-3.28c8.73-1.22,16.79-1.35,24.17-.38,7.38,.97,13.49,3.45,18.33,7.46s7.81,9.92,8.9,17.76c1.7,12.15-1.24,21.36-8.81,27.64-7.57,6.28-18.74,10.45-33.52,12.51l-60.45,8.44Z"/><path class="cls-1" d="M372.09,375.19c-8.45,1.18-16,.35-22.65-2.49-6.65-2.84-12.06-7.07-16.24-12.71-4.18-5.63-6.78-12.09-7.8-19.37-1.02-7.28-.29-14.2,2.19-20.76,2.48-6.56,6.52-12.12,12.14-16.67,5.61-4.55,12.65-7.42,21.1-8.6,8.45-1.18,15.99-.35,22.6,2.49,6.62,2.84,12,7.08,16.16,12.72,4.15,5.64,6.74,12.1,7.76,19.38,1.02,7.28,.3,14.2-2.15,20.76-2.45,6.56-6.47,12.12-12.05,16.66-5.59,4.55-12.6,7.41-21.06,8.59Zm-.29-2.1c3.08-.43,5.49-1.82,7.25-4.18,1.75-2.35,2.98-5.41,3.69-9.16,.7-3.75,.99-7.95,.85-12.62-.14-4.66-.55-9.48-1.25-14.46-.7-5.04-1.63-9.8-2.77-14.29-1.14-4.49-2.56-8.44-4.27-11.86-1.7-3.41-3.72-6.01-6.05-7.8-2.33-1.79-5.04-2.46-8.12-2.03-3.14,.44-5.58,1.83-7.33,4.19-1.75,2.36-2.98,5.41-3.69,9.16-.7,3.75-.99,7.94-.85,12.57,.13,4.63,.55,9.47,1.26,14.5,.7,4.98,1.62,9.73,2.76,14.25,1.15,4.52,2.57,8.49,4.27,11.9,1.7,3.42,3.72,6.02,6.05,7.8,2.33,1.79,5.06,2.46,8.2,2.02Z"/><path class="cls-1" d="M466.79,361.97c-8.45,1.18-16,.35-22.65-2.49-6.65-2.84-12.06-7.07-16.24-12.71-4.18-5.63-6.78-12.09-7.8-19.37-1.02-7.28-.29-14.2,2.19-20.77,2.48-6.56,6.52-12.12,12.14-16.67,5.61-4.55,12.65-7.42,21.1-8.6,8.45-1.18,15.99-.35,22.6,2.49,6.62,2.84,12,7.08,16.16,12.72,4.15,5.64,6.74,12.1,7.76,19.38,1.02,7.28,.3,14.2-2.15,20.76-2.45,6.56-6.47,12.12-12.05,16.66-5.59,4.55-12.6,7.41-21.06,8.59Zm-.29-2.1c3.08-.43,5.49-1.82,7.25-4.18,1.75-2.35,2.98-5.41,3.69-9.16,.7-3.75,.99-7.95,.85-12.62-.14-4.66-.55-9.48-1.25-14.46-.7-5.04-1.63-9.8-2.77-14.29-1.14-4.49-2.56-8.44-4.27-11.86-1.7-3.41-3.72-6.01-6.05-7.8-2.33-1.79-5.04-2.46-8.12-2.03-3.14,.44-5.58,1.83-7.33,4.19-1.75,2.36-2.98,5.41-3.69,9.16-.7,3.75-.99,7.94-.85,12.58,.13,4.63,.55,9.47,1.26,14.5,.7,4.98,1.62,9.73,2.76,14.25,1.15,4.52,2.57,8.49,4.27,11.9,1.7,3.42,3.72,6.02,6.05,7.8,2.33,1.79,5.06,2.46,8.2,2.02Z"/><path class="cls-1" d="M517.69,353.15l-.29-2.1,14.61-2.04-17-121.74-14.61,2.04-.29-2.1,38.03-5.31,17.29,123.84,9.24-1.29,.29,2.1-47.27,6.6Zm55.25-7.72l-.29-2.1,9.99-1.4-37.69-38.22,38.41-36.35-18.64,2.6-.29-2.1,36.27-5.07,.29,2.1-14.61,2.04-23.97,23.29,49.11,47.67,7.98-1.11,.29,2.1-46.85,6.54Z"/><path class="cls-1" d="M629.17,339.29l-3.68-26.36,2.1-.29c2.21,4.77,5.02,8.75,8.43,11.92,3.41,3.18,7.24,5.47,11.49,6.87,4.25,1.4,8.78,1.77,13.59,1.1,3.41-.48,6.4-1.36,8.96-2.66,2.56-1.3,4.48-2.96,5.76-5,1.29-2.03,1.74-4.37,1.38-7-.42-3.02-1.92-5.25-4.49-6.69-2.57-1.44-5.78-2.53-9.62-3.28-3.84-.75-7.9-1.51-12.17-2.28-4.27-.77-8.4-1.92-12.38-3.45-3.98-1.53-7.37-3.82-10.16-6.88-2.8-3.06-4.57-7.28-5.32-12.65-.62-4.42-.12-8.6,1.5-12.54,1.62-3.94,4.21-7.25,7.77-9.94,3.56-2.69,7.97-4.41,13.23-5.14,3.92-.55,7.55-.41,10.88,.41,3.34,.82,6.36,2.1,9.05,3.83l8.25-8.34,1.85-.26,3.28,23.51-2.1,.29c-1.97-3.49-4.43-6.67-7.37-9.54-2.94-2.87-6.35-5.05-10.24-6.53-3.89-1.48-8.27-1.88-13.14-1.2-2.85,.4-5.3,1.2-7.33,2.39-2.03,1.2-3.55,2.67-4.56,4.4-1.01,1.74-1.38,3.62-1.1,5.63,.41,2.91,1.94,5.08,4.59,6.51,2.65,1.43,5.96,2.53,9.92,3.32,3.96,.79,8.15,1.59,12.58,2.4,4.42,.81,8.67,1.99,12.73,3.53s7.53,3.8,10.4,6.76c2.87,2.97,4.66,7.02,5.38,12.17,.81,5.82,.05,10.88-2.29,15.17-2.34,4.29-5.67,7.73-9.99,10.3-4.32,2.57-9.03,4.21-14.12,4.92-4.31,.6-8.4,.46-12.26-.43-3.86-.89-7.42-2.39-10.69-4.5l-8.37,9.3-1.76,.25Z"/></g><g><path class="cls-1" d="M361.03,489.43c-3.86,.54-7.35,.39-10.45-.46-3.1-.85-5.84-2.18-8.23-4.02l-8.13,7.74-1.2,.17-3.43-24.54,1.36-.19c1.39,2.82,3,5.54,4.84,8.16,1.84,2.62,3.95,4.92,6.34,6.89,2.39,1.97,5.08,3.44,8.07,4.38,2.99,.95,6.35,1.16,10.07,.64,3.31-.46,6.07-1.5,8.3-3.1,2.23-1.61,3.83-3.62,4.83-6.05,.99-2.43,1.28-5.12,.87-8.08-.39-2.82-1.49-5.08-3.29-6.78-1.8-1.7-4.05-3.07-6.75-4.12-2.7-1.04-5.64-1.97-8.8-2.79-3.17-.82-6.35-1.74-9.54-2.77-3.2-1.03-6.18-2.38-8.95-4.07-2.77-1.69-5.14-3.92-7.08-6.68-1.95-2.76-3.22-6.3-3.83-10.62-.61-4.35-.04-8.25,1.7-11.68,1.74-3.44,4.25-6.23,7.54-8.37,3.29-2.14,6.96-3.5,11.04-4.07,3.13-.44,6.09-.34,8.88,.28,2.78,.62,5.36,1.78,7.73,3.47l7.94-7.18,1.1-.15,3.29,23.55-1.31,.18c-2.04-4.44-4.39-8.14-7.06-11.13-2.67-2.98-5.64-5.14-8.92-6.47-3.27-1.33-6.86-1.73-10.76-1.19-4.18,.58-7.21,2.13-9.09,4.65-1.88,2.52-2.58,5.53-2.09,9.05,.35,2.54,1.41,4.59,3.17,6.13s3.97,2.84,6.64,3.86c2.66,1.03,5.56,1.97,8.7,2.83,3.14,.86,6.3,1.85,9.49,2.99,3.19,1.13,6.17,2.58,8.94,4.34,2.77,1.76,5.12,4.05,7.06,6.87,1.94,2.82,3.21,6.38,3.81,10.7,.68,4.88,.12,9.27-1.67,13.17-1.8,3.91-4.54,7.12-8.21,9.64-3.68,2.52-7.97,4.12-12.88,4.81Z"/><path class="cls-1" d="M429.95,504.89l-.18-1.31,7-.98-5.74-41.1c-.14,5.63-1.4,10.14-3.78,13.54-2.38,3.4-5.78,5.41-10.21,6.03-3.76,.52-7.45,.03-11.07-1.49-3.62-1.52-6.74-3.99-9.37-7.42-2.63-3.43-4.3-7.76-5.03-12.98-.73-5.22-.3-9.85,1.28-13.89,1.58-4.04,3.91-7.29,6.97-9.76,3.06-2.47,6.47-3.97,10.23-4.49,4.42-.62,8.25,.4,11.47,3.06,3.23,2.66,5.68,6.67,7.35,12.04l-2.29-16.4,21.57-3.01,.18,1.31-6.95,.97,9.99,71.55,6.95-.97,.18,1.31-28.57,3.99Zm-9.86-26.74c2.12-.3,4.06-1.43,5.81-3.39,1.75-1.96,3.03-4.7,3.86-8.21,.82-3.5,.89-7.75,.19-12.73-.7-4.98-1.92-9.06-3.68-12.24-1.76-3.18-3.75-5.48-5.97-6.89-2.22-1.41-4.39-1.97-6.52-1.67-1.98,.28-3.5,1.36-4.55,3.24-1.05,1.89-1.65,4.54-1.81,7.97-.16,3.43,.11,7.63,.8,12.61s1.59,9.09,2.68,12.32c1.09,3.24,2.4,5.61,3.92,7.12,1.52,1.51,3.28,2.12,5.26,1.85Z"/><path class="cls-1" d="M481.55,472.13c-3.9,.54-7.02,.28-9.35-.8-2.33-1.08-4.08-2.74-5.25-4.99-1.17-2.25-1.96-4.89-2.38-7.92l-4.47-32.01-7,.98-.18-1.31,21.57-3.01,4.54,32.53c.41,2.92,.87,5.3,1.37,7.13,.5,1.83,1.18,3.15,2.04,3.95,.86,.8,2,1.1,3.43,.91,2.26-.32,4.07-1.27,5.43-2.86,1.36-1.59,2.35-3.55,2.99-5.87,.63-2.32,.99-4.79,1.07-7.39,.08-2.6-.04-5.09-.38-7.45l.96-.35c.35,2.54,.51,5.33,.48,8.37-.04,3.04-.5,5.99-1.4,8.85-.9,2.86-2.41,5.31-4.54,7.37-2.13,2.05-5.11,3.35-8.93,3.88Zm16.88-3.42l-6.53-46.74-6.79,.95-.18-1.31,21.46-3,6.53,46.74,6.95-.97,.18,1.31-21.62,3.02Z"/><path class="cls-1" d="M541.45,463.76c-4.53,.63-8.3-.02-11.32-1.96-3.02-1.94-4.81-4.89-5.36-8.86-.65-4.67,.86-8.58,4.54-11.73,3.68-3.16,9.22-5.25,16.64-6.29l12.27-1.71,.16,1.15-8.83,1.23c-2.65,.37-4.67,1.32-6.07,2.84-1.4,1.53-2.33,3.28-2.78,5.26-.45,1.98-.56,3.84-.31,5.58,.23,1.64,.63,3.14,1.22,4.52,.58,1.38,1.38,2.45,2.4,3.23,1.01,.78,2.23,1.07,3.66,.87,1.53-.21,2.89-.95,4.08-2.22,1.19-1.27,2.06-3.07,2.6-5.42,.54-2.35,.57-5.23,.1-8.64l.84-.12c.57,4.07,.41,7.7-.48,10.88-.89,3.18-2.45,5.75-4.67,7.71s-5.12,3.19-8.67,3.69Zm27.57-3.85c-2.26,.32-4.32,.29-6.19-.07s-3.4-1.15-4.62-2.36c-1.22-1.21-1.98-2.92-2.28-5.11l-3.3-23.66c-.35-2.51-.94-4.93-1.76-7.26-.82-2.33-2.04-4.19-3.65-5.56-1.61-1.37-3.81-1.86-6.6-1.47-1.57,.22-3.22,.64-4.96,1.25-1.74,.62-3.36,1.43-4.85,2.43-1.49,1.01-2.66,2.2-3.49,3.58-.84,1.38-1.13,2.94-.89,4.68l-1.51,.21c-.31-2.19,.27-4.08,1.74-5.65,1.47-1.57,3.28-2.51,5.44-2.81,2.26-.32,4.34,.02,6.23,.99,1.89,.98,3,2.62,3.32,4.91,.35,2.47-.26,4.47-1.83,5.98-1.56,1.51-3.46,2.43-5.69,2.74-2.37,.33-4.44-.05-6.2-1.13-1.77-1.08-2.81-2.76-3.12-5.02-.27-1.95,.07-3.71,1.02-5.28s2.31-2.94,4.08-4.11c1.77-1.17,3.79-2.14,6.06-2.9,2.27-.76,4.61-1.31,7.01-1.64,5.29-.74,9.63-.59,13.03,.44,3.39,1.03,5.98,2.74,7.77,5.12,1.79,2.38,2.91,5.2,3.37,8.47l3.62,25.9c.16,1.15,.56,2.09,1.19,2.82,.63,.73,1.61,1,2.94,.81,.9-.13,1.96-.67,3.18-1.64,1.21-.97,2.12-2.35,2.72-4.13l.89,.67c-.7,2.33-2.18,4.27-4.43,5.81-2.25,1.54-5,2.54-8.23,2.99Z"/><path class="cls-1" d="M600.18,405.51l6.53,46.74,7.94-1.11,.18,1.31-29.45,4.11-.18-1.31,7-.98-6.34-45.43-7,.98-.18-1.31,21.52-3Zm2.78,25.59c-.5-3.55-.71-6.96-.63-10.21,.08-3.26,.54-6.2,1.38-8.82,.84-2.62,2.14-4.77,3.89-6.45,1.75-1.68,4.04-2.72,6.86-3.11,2.37-.33,4.46-.09,6.28,.72,1.82,.81,3.28,1.98,4.38,3.51,1.1,1.53,1.78,3.22,2.04,5.07,.34,2.4-.17,4.6-1.53,6.6-1.35,2-3.32,3.18-5.89,3.54-2.58,.36-4.78-.14-6.62-1.5-1.84-1.36-2.92-3.15-3.23-5.38-.35-2.54,.17-4.73,1.59-6.56,1.41-1.83,3.37-2.92,5.88-3.27,1.64-.23,3.16-.07,4.57,.48,1.41,.55,2.57,1.36,3.48,2.44,.91,1.08,1.47,2.3,1.65,3.66l-1.25,.18c-.23-1.67-.85-3.17-1.85-4.51-1-1.33-2.32-2.35-3.94-3.04-1.62-.7-3.46-.9-5.52-.61-2.44,.34-4.46,1.29-6.07,2.85-1.61,1.55-2.84,3.58-3.68,6.08-.84,2.5-1.34,5.31-1.48,8.43-.15,3.13,.01,6.4,.49,9.81l-.78,.11Z"/><path class="cls-1" d="M663.91,446.66c-4.88,.68-9.37,.32-13.49-1.07-4.12-1.4-7.54-3.8-10.27-7.22-2.73-3.42-4.47-7.82-5.23-13.22-.75-5.4-.32-10.11,1.3-14.13,1.62-4.03,4.18-7.27,7.69-9.73,3.51-2.46,7.7-4.03,12.57-4.71,5.15-.72,9.55-.27,13.18,1.35,3.63,1.62,6.49,3.99,8.58,7.11,2.09,3.12,3.39,6.57,3.92,10.37l-40.68,5.68-.18-1.31,25.17-3.52c-.31-2.19-.69-4.41-1.14-6.65-.46-2.24-1.05-4.3-1.79-6.17-.74-1.87-1.66-3.32-2.76-4.35s-2.47-1.44-4.11-1.21c-1.78,.25-3.15,1.06-4.13,2.44-.98,1.38-1.65,3.18-2.01,5.42-.36,2.23-.49,4.73-.39,7.48,.1,2.75,.36,5.63,.78,8.62,.47,3.38,1.08,6.51,1.82,9.41,.74,2.9,1.7,5.4,2.88,7.5,1.18,2.11,2.62,3.68,4.33,4.72,1.71,1.04,3.78,1.39,6.22,1.05,4.67-.65,8.43-2.51,11.31-5.57,2.87-3.06,4.67-6.69,5.4-10.87l1.36-.19c-.74,4.65-2.73,8.71-5.99,12.2s-8.04,5.67-14.34,6.55Z"/></g></svg>