<?xml version="1.0" encoding="UTF-8"?><svg id="Layer_1" xmlns="http://www.w3.org/2000/svg" viewBox="0 0 835.6 770.26"><defs><style>.cls-1{fill:#403b38;}</style></defs><path class="cls-1" d="M738.13,102.27s-45.18,43.52-104.4,50.48c-56.05,6.61-80.14-18.03-138.55-18.03s-60.27,38.94-60.27,38.94c0,0-3.71-37.09-67.68-37.09s-79.76,27.82-150.22,27.82-108.19-55.72-109.4-57.46c.43,1.23,9.77,28.5,13.86,74.06,4.38,49.09,7.45,319.99,2.82,357.08-4.63,37.11-16.7,35.25-16.7,35.25,0,0,23.19,33.37,68.62,33.37s129.81-34.31,167.84-34.31,42.66,34.31,42.66,34.31c0,0,24.61-40.76,67.27-40.76s78.3,40.76,148.78,40.76,128.89-50.99,128.89-50.99c0,0-12.06-25.96-20.53-96.44-8.47-70.48,27.02-357,27.02-357Zm-121.99,483.41c-48.6,0-107.78-33.14-157.71-33.14s-70.91,33.14-70.91,33.14c0,0-9.95-30.93-46.39-30.93s-93.88,30.93-136.95,30.93-57.42-9.93-57.42-9.93l-11.05-416.37s33.14,32.04,90.56,32.04,83.83-27.51,133.64-32.04c72.88-6.63,78.41,70.69,78.41,70.69,0,0-1.11-60.74,39.75-68.48,40.86-7.72,68.48,16.58,114.86,16.58,67.37,0,118.18-25.41,118.18-25.41l-18.77,402.01s-27.62,30.93-76.21,30.93Z"/><path class="cls-1" d="M435.25,152.74c.1-.64-7.88-26.52,39.65-36.62,47.95-10.2,47.71-11.28,47.71-11.28v13.88s-40.16,3.05-58.98,10.07c-19.75,7.37-28.37,23.95-28.37,23.95Z"/><path class="cls-1" d="M755.18,206.79s-21.15,77.73-24.85,219.21c-1.54,58.85,12.86,67.12,12.86,67.12l-11.99,3.63s-17.44-53.05-6.54-144.98c10.9-91.93,19.62-144.98,19.62-144.98h10.9Z"/><path class="cls-1" d="M80.42,105.06s25.82,40.45,17.12,114.65c-8.7,74.21-14.99,97.5-14.99,97.5l16.01-2.36s11.22-80.8,6.62-136.43c-4.6-55.63-15.51-80.03-15.51-80.03l-9.26,6.67Z"/><path class="cls-1" d="M112.27,600.7s17.71,17.51,58.98,18.22c62.01,1.07,69.52-12.22,69.52-12.22l-4.46,12.97s-72.35,17.74-100.59,9.44c-28.24-8.29-34.46-44.35-34.46-44.35l11.02,15.92Z"/><path class="cls-1" d="M555.65,606.7s57.37,11.85,79.17,9.45c40.02-4.4,76.3-25.5,76.3-25.5v18.33s-39.08,13.43-77.73,17.75c-41.08,4.6-77.73-20.03-77.73-20.03Z"/></svg>